<svg width="32" height="32" viewBox="0 0 32 32" fill="none" xmlns="http://www.w3.org/2000/svg">
<g id="Icon_Account_setting">
<g id="Vector">
<mask id="path-1-inside-1_1_1557" fill="white">
<path d="M26.5334 16.8799C26.3196 16.6366 26.2018 16.3238 26.2018 15.9999C26.2018 15.6761 26.3196 15.3633 26.5334 15.1199L28.2401 13.1999C28.4281 12.9902 28.5449 12.7262 28.5737 12.446C28.6024 12.1657 28.5416 11.8835 28.4001 11.6399L25.7334 7.02661C25.5933 6.7833 25.3799 6.59044 25.1237 6.47552C24.8676 6.3606 24.5816 6.32949 24.3067 6.38661L21.8001 6.89328C21.4811 6.95918 21.1491 6.90606 20.8666 6.74394C20.5841 6.58182 20.3707 6.32192 20.2667 6.01328L19.4534 3.57327C19.364 3.30845 19.1935 3.07843 18.9662 2.91573C18.7389 2.75303 18.4663 2.66589 18.1867 2.66661H12.8534C12.5626 2.65143 12.2749 2.73184 12.0342 2.89556C11.7934 3.05928 11.6128 3.2973 11.5201 3.57327L10.7734 6.01328C10.6694 6.32192 10.456 6.58182 10.1735 6.74394C9.89107 6.90606 9.55902 6.95918 9.24006 6.89328L6.66673 6.38661C6.40613 6.34978 6.14046 6.3909 5.90319 6.50479C5.66592 6.61868 5.46767 6.80025 5.3334 7.02661L2.66673 11.6399C2.52161 11.8808 2.45636 12.1614 2.48031 12.4416C2.50426 12.7218 2.61617 12.9872 2.80006 13.1999L4.4934 15.1199C4.70716 15.3633 4.82504 15.6761 4.82504 15.9999C4.82504 16.3238 4.70716 16.6366 4.4934 16.8799L2.80006 18.7999C2.61617 19.0127 2.50426 19.2781 2.48031 19.5583C2.45636 19.8385 2.52161 20.1191 2.66673 20.3599L5.3334 24.9733C5.47353 25.2166 5.68689 25.4094 5.94307 25.5244C6.19925 25.6393 6.48516 25.6704 6.76007 25.6133L9.26673 25.1066C9.58569 25.0407 9.91774 25.0938 10.2002 25.2559C10.4827 25.4181 10.6961 25.678 10.8001 25.9866L11.6134 28.4266C11.7062 28.7026 11.8867 28.9406 12.1275 29.1043C12.3682 29.268 12.656 29.3485 12.9467 29.3333H18.2801C18.5596 29.334 18.8323 29.2469 19.0596 29.0842C19.2869 28.9215 19.4573 28.6914 19.5467 28.4266L20.3601 25.9866C20.4641 25.678 20.6774 25.4181 20.9599 25.2559C21.2424 25.0938 21.5744 25.0407 21.8934 25.1066L24.4001 25.6133C24.675 25.6704 24.9609 25.6393 25.2171 25.5244C25.4732 25.4094 25.6866 25.2166 25.8267 24.9733L28.4934 20.3599C28.635 20.1164 28.6957 19.8342 28.667 19.5539C28.6382 19.2737 28.5215 19.0097 28.3334 18.7999L26.5334 16.8799ZM24.5467 18.6666L25.6134 19.8666L23.9067 22.8266L22.3334 22.5066C21.3731 22.3103 20.3742 22.4734 19.5262 22.965C18.6782 23.4566 18.0403 24.2424 17.7334 25.1733L17.2267 26.6666H13.8134L13.3334 25.1466C13.0265 24.2157 12.3886 23.4299 11.5406 22.9383C10.6926 22.4468 9.69369 22.2836 8.7334 22.4799L7.16006 22.7999L5.42673 19.8533L6.4934 18.6533C7.14934 17.9199 7.51197 16.9705 7.51197 15.9866C7.51197 15.0027 7.14934 14.0533 6.4934 13.3199L5.42673 12.1199L7.1334 9.18661L8.70673 9.50661C9.66703 9.7029 10.666 9.53978 11.5139 9.04821C12.3619 8.55663 12.9999 7.77082 13.3067 6.83994L13.8134 5.33327H17.2267L17.7334 6.85327C18.0403 7.78415 18.6782 8.56996 19.5262 9.06154C20.3742 9.55312 21.3731 9.71624 22.3334 9.51994L23.9067 9.19994L25.6134 12.1599L24.5467 13.3599C23.8982 14.0916 23.54 15.0355 23.54 16.0133C23.54 16.991 23.8982 17.9349 24.5467 18.6666ZM15.5201 10.6666C14.4652 10.6666 13.4341 10.9794 12.557 11.5654C11.68 12.1515 10.9964 12.9844 10.5927 13.959C10.189 14.9335 10.0834 16.0059 10.2892 17.0404C10.495 18.075 11.0029 19.0253 11.7488 19.7712C12.4947 20.5171 13.445 21.025 14.4796 21.2308C15.5141 21.4366 16.5865 21.331 17.561 20.9273C18.5356 20.5236 19.3685 19.84 19.9546 18.963C20.5406 18.0859 20.8534 17.0548 20.8534 15.9999C20.8534 14.5855 20.2915 13.2289 19.2913 12.2287C18.2911 11.2285 16.9346 10.6666 15.5201 10.6666ZM15.5201 18.6666C14.9926 18.6666 14.4771 18.5102 14.0385 18.2172C13.6 17.9242 13.2582 17.5077 13.0564 17.0204C12.8546 16.5332 12.8017 15.997 12.9046 15.4797C13.0075 14.9624 13.2615 14.4873 13.6344 14.1143C14.0074 13.7414 14.4825 13.4874 14.9998 13.3845C15.5171 13.2816 16.0533 13.3344 16.5406 13.5363C17.0278 13.7381 17.4443 14.0799 17.7373 14.5184C18.0303 14.957 18.1867 15.4725 18.1867 15.9999C18.1867 16.7072 17.9058 17.3855 17.4057 17.8856C16.9056 18.3857 16.2273 18.6666 15.5201 18.6666Z"/>
</mask>
<path d="M26.5334 16.8799C26.3196 16.6366 26.2018 16.3238 26.2018 15.9999C26.2018 15.6761 26.3196 15.3633 26.5334 15.1199L28.2401 13.1999C28.4281 12.9902 28.5449 12.7262 28.5737 12.446C28.6024 12.1657 28.5416 11.8835 28.4001 11.6399L25.7334 7.02661C25.5933 6.7833 25.3799 6.59044 25.1237 6.47552C24.8676 6.3606 24.5816 6.32949 24.3067 6.38661L21.8001 6.89328C21.4811 6.95918 21.1491 6.90606 20.8666 6.74394C20.5841 6.58182 20.3707 6.32192 20.2667 6.01328L19.4534 3.57327C19.364 3.30845 19.1935 3.07843 18.9662 2.91573C18.7389 2.75303 18.4663 2.66589 18.1867 2.66661H12.8534C12.5626 2.65143 12.2749 2.73184 12.0342 2.89556C11.7934 3.05928 11.6128 3.2973 11.5201 3.57327L10.7734 6.01328C10.6694 6.32192 10.456 6.58182 10.1735 6.74394C9.89107 6.90606 9.55902 6.95918 9.24006 6.89328L6.66673 6.38661C6.40613 6.34978 6.14046 6.3909 5.90319 6.50479C5.66592 6.61868 5.46767 6.80025 5.3334 7.02661L2.66673 11.6399C2.52161 11.8808 2.45636 12.1614 2.48031 12.4416C2.50426 12.7218 2.61617 12.9872 2.80006 13.1999L4.4934 15.1199C4.70716 15.3633 4.82504 15.6761 4.82504 15.9999C4.82504 16.3238 4.70716 16.6366 4.4934 16.8799L2.80006 18.7999C2.61617 19.0127 2.50426 19.2781 2.48031 19.5583C2.45636 19.8385 2.52161 20.1191 2.66673 20.3599L5.3334 24.9733C5.47353 25.2166 5.68689 25.4094 5.94307 25.5244C6.19925 25.6393 6.48516 25.6704 6.76007 25.6133L9.26673 25.1066C9.58569 25.0407 9.91774 25.0938 10.2002 25.2559C10.4827 25.4181 10.6961 25.678 10.8001 25.9866L11.6134 28.4266C11.7062 28.7026 11.8867 28.9406 12.1275 29.1043C12.3682 29.268 12.656 29.3485 12.9467 29.3333H18.2801C18.5596 29.334 18.8323 29.2469 19.0596 29.0842C19.2869 28.9215 19.4573 28.6914 19.5467 28.4266L20.3601 25.9866C20.4641 25.678 20.6774 25.4181 20.9599 25.2559C21.2424 25.0938 21.5744 25.0407 21.8934 25.1066L24.4001 25.6133C24.675 25.6704 24.9609 25.6393 25.2171 25.5244C25.4732 25.4094 25.6866 25.2166 25.8267 24.9733L28.4934 20.3599C28.635 20.1164 28.6957 19.8342 28.667 19.5539C28.6382 19.2737 28.5215 19.0097 28.3334 18.7999L26.5334 16.8799ZM24.5467 18.6666L25.6134 19.8666L23.9067 22.8266L22.3334 22.5066C21.3731 22.3103 20.3742 22.4734 19.5262 22.965C18.6782 23.4566 18.0403 24.2424 17.7334 25.1733L17.2267 26.6666H13.8134L13.3334 25.1466C13.0265 24.2157 12.3886 23.4299 11.5406 22.9383C10.6926 22.4468 9.69369 22.2836 8.7334 22.4799L7.16006 22.7999L5.42673 19.8533L6.4934 18.6533C7.14934 17.9199 7.51197 16.9705 7.51197 15.9866C7.51197 15.0027 7.14934 14.0533 6.4934 13.3199L5.42673 12.1199L7.1334 9.18661L8.70673 9.50661C9.66703 9.7029 10.666 9.53978 11.5139 9.04821C12.3619 8.55663 12.9999 7.77082 13.3067 6.83994L13.8134 5.33327H17.2267L17.7334 6.85327C18.0403 7.78415 18.6782 8.56996 19.5262 9.06154C20.3742 9.55312 21.3731 9.71624 22.3334 9.51994L23.9067 9.19994L25.6134 12.1599L24.5467 13.3599C23.8982 14.0916 23.54 15.0355 23.54 16.0133C23.54 16.991 23.8982 17.9349 24.5467 18.6666ZM15.5201 10.6666C14.4652 10.6666 13.4341 10.9794 12.557 11.5654C11.68 12.1515 10.9964 12.9844 10.5927 13.959C10.189 14.9335 10.0834 16.0059 10.2892 17.0404C10.495 18.075 11.0029 19.0253 11.7488 19.7712C12.4947 20.5171 13.445 21.025 14.4796 21.2308C15.5141 21.4366 16.5865 21.331 17.561 20.9273C18.5356 20.5236 19.3685 19.84 19.9546 18.963C20.5406 18.0859 20.8534 17.0548 20.8534 15.9999C20.8534 14.5855 20.2915 13.2289 19.2913 12.2287C18.2911 11.2285 16.9346 10.6666 15.5201 10.6666ZM15.5201 18.6666C14.9926 18.6666 14.4771 18.5102 14.0385 18.2172C13.6 17.9242 13.2582 17.5077 13.0564 17.0204C12.8546 16.5332 12.8017 15.997 12.9046 15.4797C13.0075 14.9624 13.2615 14.4873 13.6344 14.1143C14.0074 13.7414 14.4825 13.4874 14.9998 13.3845C15.5171 13.2816 16.0533 13.3344 16.5406 13.5363C17.0278 13.7381 17.4443 14.0799 17.7373 14.5184C18.0303 14.957 18.1867 15.4725 18.1867 15.9999C18.1867 16.7072 17.9058 17.3855 17.4057 17.8856C16.9056 18.3857 16.2273 18.6666 15.5201 18.6666Z" stroke="#2E1619" stroke-width="4" mask="url(#path-1-inside-1_1_1557)"/>
</g>
</g>
</svg>
