<svg width="18" height="18" viewBox="0 0 18 18" fill="none" xmlns="http://www.w3.org/2000/svg">
<g clip-path="url(#clip0_1_2463)">
<path d="M7.02518 0.907571C7.12748 1.03187 7.19015 1.184 7.2051 1.34429C7.22004 1.50458 7.18657 1.66567 7.10902 1.80674C6.50314 2.91914 6.18673 4.16605 6.1889 5.43275C6.1889 9.64668 9.62417 13.0589 13.858 13.0589C14.4103 13.0589 14.9479 13.0013 15.4646 12.8912C15.6229 12.8569 15.7879 12.87 15.9389 12.9289C16.0898 12.9878 16.2201 13.0899 16.3134 13.2224C16.4119 13.3601 16.4621 13.5266 16.4563 13.6958C16.4504 13.8651 16.3888 14.0276 16.2809 14.1582C15.459 15.1679 14.4221 15.9814 13.2458 16.5394C12.0696 17.0975 10.7836 17.386 9.48165 17.3839C4.65046 17.3839 0.737305 13.4917 0.737305 8.69616C0.737305 5.08691 2.95273 1.99118 6.10715 0.679112C6.26429 0.612703 6.43872 0.599073 6.60426 0.640269C6.7698 0.681465 6.9175 0.775262 7.02518 0.907571ZM5.82839 1.99013C4.61546 2.64075 3.60147 3.60784 2.89418 4.78862C2.1869 5.9694 1.81274 7.31975 1.81148 8.69616C1.81148 12.909 5.24781 16.3213 9.48165 16.3213C10.4955 16.323 11.4997 16.1237 12.436 15.7348C13.3723 15.3458 14.2221 14.7751 14.9364 14.0555C14.5832 14.0995 14.2238 14.1215 13.858 14.1215C9.02683 14.1215 5.11472 10.2294 5.11472 5.4338C5.11472 4.2108 5.36833 3.0465 5.82839 1.99013Z" fill="white"/>
<path d="M12.0492 3.91539C12.0643 3.87001 12.0932 3.83051 12.132 3.80252C12.1707 3.77453 12.2173 3.75947 12.2651 3.75947C12.3129 3.75947 12.3595 3.77453 12.3983 3.80252C12.437 3.83051 12.466 3.87001 12.481 3.91539L12.8866 5.13314C13.0679 5.676 13.4934 6.10148 14.0362 6.28278L15.254 6.68835C15.2993 6.70337 15.3388 6.73232 15.3668 6.77108C15.3948 6.80983 15.4099 6.85642 15.4099 6.90423C15.4099 6.95204 15.3948 6.99863 15.3668 7.03738C15.3388 7.07614 15.2993 7.10509 15.254 7.12011L14.0362 7.52568C13.7685 7.61488 13.5252 7.76521 13.3257 7.96476C13.1261 8.1643 12.9758 8.40758 12.8866 8.67532L12.481 9.89307C12.466 9.93845 12.437 9.97794 12.3983 10.0059C12.3595 10.0339 12.3129 10.049 12.2651 10.049C12.2173 10.049 12.1707 10.0339 12.132 10.0059C12.0932 9.97794 12.0643 9.93845 12.0492 9.89307L11.6437 8.67532C11.5545 8.40758 11.4041 8.1643 11.2046 7.96476C11.0051 7.76521 10.7618 7.61488 10.494 7.52568L9.27629 7.12011C9.2309 7.10509 9.19141 7.07614 9.16342 7.03738C9.13543 6.99863 9.12036 6.95204 9.12036 6.90423C9.12036 6.85642 9.13543 6.80983 9.16342 6.77108C9.19141 6.73232 9.2309 6.70337 9.27629 6.68835L10.494 6.28278C10.7618 6.19358 11.0051 6.04325 11.2046 5.8437C11.4041 5.64416 11.5545 5.40088 11.6437 5.13314L12.0492 3.91539ZM15.2655 0.720101C15.2758 0.690261 15.2952 0.664386 15.321 0.646073C15.3467 0.62776 15.3775 0.61792 15.4091 0.61792C15.4406 0.61792 15.4714 0.62776 15.4972 0.646073C15.5229 0.664386 15.5423 0.690261 15.5526 0.720101L15.823 1.53124C15.9435 1.89384 16.2275 2.17784 16.5901 2.29836L17.4013 2.56874C17.4311 2.57908 17.457 2.59847 17.4753 2.6242C17.4936 2.64993 17.5035 2.68073 17.5035 2.71231C17.5035 2.74389 17.4936 2.77469 17.4753 2.80042C17.457 2.82615 17.4311 2.84554 17.4013 2.85588L16.5901 3.12626C16.4114 3.18571 16.2491 3.28599 16.1159 3.41915C15.9827 3.55232 15.8825 3.71469 15.823 3.89338L15.5526 4.70452C15.5423 4.73436 15.5229 4.76023 15.4972 4.77855C15.4714 4.79686 15.4406 4.8067 15.4091 4.8067C15.3775 4.8067 15.3467 4.79686 15.321 4.77855C15.2952 4.76023 15.2758 4.73436 15.2655 4.70452L14.9951 3.89338C14.9357 3.71469 14.8354 3.55232 14.7022 3.41915C14.5691 3.28599 14.4067 3.18571 14.228 3.12626L13.4169 2.85588C13.387 2.84554 13.3611 2.82615 13.3428 2.80042C13.3245 2.77469 13.3147 2.74389 13.3147 2.71231C13.3147 2.68073 13.3245 2.64993 13.3428 2.6242C13.3611 2.59847 13.387 2.57908 13.4169 2.56874L14.228 2.29836C14.5906 2.17784 14.8746 1.89384 14.9951 1.53124L15.2655 0.721149V0.720101Z" fill="white"/>
</g>
<defs>
<clipPath id="clip0_1_2463">
<rect width="16.7677" height="16.7677" fill="white" transform="translate(0.737305 0.616211)"/>
</clipPath>
</defs>
</svg>
