<svg width="32" height="32" viewBox="0 0 32 32" fill="none" xmlns="http://www.w3.org/2000/svg">
<g id="u:history">
<path id="Vector" d="M16.0001 2.66663C12.5819 2.67638 9.29807 3.99851 6.82675 6.35996V3.99996C6.82675 3.64634 6.68627 3.3072 6.43622 3.05715C6.18618 2.8071 5.84704 2.66663 5.49341 2.66663C5.13979 2.66663 4.80065 2.8071 4.55061 3.05715C4.30056 3.3072 4.16008 3.64634 4.16008 3.99996V9.99996C4.16008 10.3536 4.30056 10.6927 4.55061 10.9428C4.80065 11.1928 5.13979 11.3333 5.49341 11.3333H11.4934C11.847 11.3333 12.1862 11.1928 12.4362 10.9428C12.6863 10.6927 12.8267 10.3536 12.8267 9.99996C12.8267 9.64634 12.6863 9.3072 12.4362 9.05715C12.1862 8.8071 11.847 8.66663 11.4934 8.66663H8.29341C10.0078 6.8751 12.2928 5.73683 14.7555 5.44752C17.2182 5.1582 19.7047 5.73593 21.7876 7.08135C23.8705 8.42678 25.4196 10.4558 26.1685 12.8197C26.9174 15.1835 26.8194 17.7344 25.8913 20.0338C24.9632 22.3332 23.263 24.2374 21.083 25.419C18.903 26.6007 16.3794 26.9859 13.9462 26.5084C11.5129 26.031 9.32204 24.7207 7.7502 22.8029C6.17837 20.8851 5.3238 18.4796 5.33341 16C5.33341 15.6463 5.19294 15.3072 4.94289 15.0572C4.69284 14.8071 4.3537 14.6666 4.00008 14.6666C3.64646 14.6666 3.30732 14.8071 3.05727 15.0572C2.80722 15.3072 2.66675 15.6463 2.66675 16C2.66675 18.637 3.44873 21.2149 4.91382 23.4076C6.37891 25.6002 8.46129 27.3092 10.8976 28.3184C13.334 29.3275 16.0149 29.5916 18.6013 29.0771C21.1877 28.5626 23.5635 27.2928 25.4282 25.4281C27.2929 23.5634 28.5627 21.1876 29.0772 18.6012C29.5917 16.0148 29.3276 13.3339 28.3185 10.8975C27.3093 8.46116 25.6003 6.37878 23.4077 4.9137C21.215 3.44861 18.6372 2.66663 16.0001 2.66663ZM16.0001 10.6666C15.6465 10.6666 15.3073 10.8071 15.0573 11.0572C14.8072 11.3072 14.6667 11.6463 14.6667 12V16C14.6667 16.3536 14.8072 16.6927 15.0573 16.9428C15.3073 17.1928 15.6465 17.3333 16.0001 17.3333H18.6667C19.0204 17.3333 19.3595 17.1928 19.6096 16.9428C19.8596 16.6927 20.0001 16.3536 20.0001 16C20.0001 15.6463 19.8596 15.3072 19.6096 15.0572C19.3595 14.8071 19.0204 14.6666 18.6667 14.6666H17.3334V12C17.3334 11.6463 17.1929 11.3072 16.9429 11.0572C16.6928 10.8071 16.3537 10.6666 16.0001 10.6666Z" fill="#D1D5DB"/>
</g>
</svg>
