<svg width="32" height="32" viewBox="0 0 32 32" fill="none" xmlns="http://www.w3.org/2000/svg">
<g id="Icon_Account_setting">
<g id="Vector">
<mask id="path-1-inside-1_163_1185" fill="white">
<path d="M26.5333 16.8799C26.3195 16.6366 26.2016 16.3238 26.2016 15.9999C26.2016 15.6761 26.3195 15.3633 26.5333 15.1199L28.2399 13.1999C28.428 12.9902 28.5448 12.7262 28.5735 12.446C28.6023 12.1657 28.5415 11.8835 28.3999 11.6399L25.7333 7.02661C25.5931 6.7833 25.3798 6.59044 25.1236 6.47552C24.8674 6.3606 24.5815 6.32949 24.3066 6.38661L21.7999 6.89328C21.481 6.95918 21.1489 6.90606 20.8665 6.74394C20.584 6.58182 20.3706 6.32192 20.2666 6.01328L19.4533 3.57327C19.3638 3.30845 19.1934 3.07843 18.9661 2.91573C18.7388 2.75303 18.4661 2.66589 18.1866 2.66661H12.8533C12.5625 2.65143 12.2748 2.73184 12.034 2.89556C11.7933 3.05928 11.6127 3.2973 11.5199 3.57327L10.7733 6.01328C10.6693 6.32192 10.4559 6.58182 10.1734 6.74394C9.89095 6.90606 9.5589 6.95918 9.23994 6.89328L6.66661 6.38661C6.40601 6.34978 6.14034 6.3909 5.90307 6.50479C5.6658 6.61868 5.46754 6.80025 5.33328 7.02661L2.66661 11.6399C2.52149 11.8808 2.45624 12.1614 2.48019 12.4416C2.50413 12.7218 2.61605 12.9872 2.79994 13.1999L4.49328 15.1199C4.70704 15.3633 4.82492 15.6761 4.82492 15.9999C4.82492 16.3238 4.70704 16.6366 4.49328 16.8799L2.79994 18.7999C2.61605 19.0127 2.50413 19.2781 2.48019 19.5583C2.45624 19.8385 2.52149 20.1191 2.66661 20.3599L5.33328 24.9733C5.47341 25.2166 5.68677 25.4094 5.94295 25.5244C6.19912 25.6393 6.48504 25.6704 6.75994 25.6133L9.26661 25.1066C9.58557 25.0407 9.91761 25.0938 10.2001 25.2559C10.4826 25.4181 10.6959 25.678 10.7999 25.9866L11.6133 28.4266C11.706 28.7026 11.8866 28.9406 12.1274 29.1043C12.3681 29.268 12.6559 29.3485 12.9466 29.3333H18.2799C18.5595 29.334 18.8321 29.2469 19.0594 29.0842C19.2867 28.9215 19.4572 28.6914 19.5466 28.4266L20.3599 25.9866C20.4639 25.678 20.6773 25.4181 20.9598 25.2559C21.2423 25.0938 21.5743 25.0407 21.8933 25.1066L24.3999 25.6133C24.6748 25.6704 24.9608 25.6393 25.2169 25.5244C25.4731 25.4094 25.6865 25.2166 25.8266 24.9733L28.4933 20.3599C28.6348 20.1164 28.6956 19.8342 28.6669 19.5539C28.6381 19.2737 28.5213 19.0097 28.3333 18.7999L26.5333 16.8799ZM24.5466 18.6666L25.6133 19.8666L23.9066 22.8266L22.3333 22.5066C21.373 22.3103 20.374 22.4734 19.5261 22.965C18.6781 23.4566 18.0401 24.2424 17.7333 25.1733L17.2266 26.6666H13.8133L13.3333 25.1466C13.0264 24.2157 12.3885 23.4299 11.5405 22.9383C10.6925 22.4468 9.69357 22.2836 8.73328 22.4799L7.15994 22.7999L5.42661 19.8533L6.49328 18.6533C7.14922 17.9199 7.51185 16.9705 7.51185 15.9866C7.51185 15.0027 7.14922 14.0533 6.49328 13.3199L5.42661 12.1199L7.13328 9.18661L8.70661 9.50661C9.6669 9.7029 10.6658 9.53978 11.5138 9.04821C12.3618 8.55663 12.9997 7.77082 13.3066 6.83994L13.8133 5.33327H17.2266L17.7333 6.85327C18.0401 7.78415 18.6781 8.56996 19.5261 9.06154C20.374 9.55312 21.373 9.71624 22.3333 9.51994L23.9066 9.19994L25.6133 12.1599L24.5466 13.3599C23.898 14.0916 23.5399 15.0355 23.5399 16.0133C23.5399 16.991 23.898 17.9349 24.5466 18.6666ZM15.5199 10.6666C14.4651 10.6666 13.434 10.9794 12.5569 11.5654C11.6798 12.1515 10.9963 12.9844 10.5926 13.959C10.1889 14.9335 10.0833 16.0059 10.2891 17.0404C10.4949 18.075 11.0028 19.0253 11.7487 19.7712C12.4946 20.5171 13.4449 21.025 14.4795 21.2308C15.514 21.4366 16.5864 21.331 17.5609 20.9273C18.5355 20.5236 19.3684 19.84 19.9544 18.963C20.5405 18.0859 20.8533 17.0548 20.8533 15.9999C20.8533 14.5855 20.2914 13.2289 19.2912 12.2287C18.291 11.2285 16.9344 10.6666 15.5199 10.6666ZM15.5199 18.6666C14.9925 18.6666 14.477 18.5102 14.0384 18.2172C13.5999 17.9242 13.2581 17.5077 13.0563 17.0204C12.8544 16.5332 12.8016 15.997 12.9045 15.4797C13.0074 14.9624 13.2614 14.4873 13.6343 14.1143C14.0073 13.7414 14.4824 13.4874 14.9997 13.3845C15.517 13.2816 16.0532 13.3344 16.5404 13.5363C17.0277 13.7381 17.4442 14.0799 17.7372 14.5184C18.0302 14.957 18.1866 15.4725 18.1866 15.9999C18.1866 16.7072 17.9057 17.3855 17.4056 17.8856C16.9055 18.3857 16.2272 18.6666 15.5199 18.6666Z"/>
</mask>
<path d="M26.5333 16.8799C26.3195 16.6366 26.2016 16.3238 26.2016 15.9999C26.2016 15.6761 26.3195 15.3633 26.5333 15.1199L28.2399 13.1999C28.428 12.9902 28.5448 12.7262 28.5735 12.446C28.6023 12.1657 28.5415 11.8835 28.3999 11.6399L25.7333 7.02661C25.5931 6.7833 25.3798 6.59044 25.1236 6.47552C24.8674 6.3606 24.5815 6.32949 24.3066 6.38661L21.7999 6.89328C21.481 6.95918 21.1489 6.90606 20.8665 6.74394C20.584 6.58182 20.3706 6.32192 20.2666 6.01328L19.4533 3.57327C19.3638 3.30845 19.1934 3.07843 18.9661 2.91573C18.7388 2.75303 18.4661 2.66589 18.1866 2.66661H12.8533C12.5625 2.65143 12.2748 2.73184 12.034 2.89556C11.7933 3.05928 11.6127 3.2973 11.5199 3.57327L10.7733 6.01328C10.6693 6.32192 10.4559 6.58182 10.1734 6.74394C9.89095 6.90606 9.5589 6.95918 9.23994 6.89328L6.66661 6.38661C6.40601 6.34978 6.14034 6.3909 5.90307 6.50479C5.6658 6.61868 5.46754 6.80025 5.33328 7.02661L2.66661 11.6399C2.52149 11.8808 2.45624 12.1614 2.48019 12.4416C2.50413 12.7218 2.61605 12.9872 2.79994 13.1999L4.49328 15.1199C4.70704 15.3633 4.82492 15.6761 4.82492 15.9999C4.82492 16.3238 4.70704 16.6366 4.49328 16.8799L2.79994 18.7999C2.61605 19.0127 2.50413 19.2781 2.48019 19.5583C2.45624 19.8385 2.52149 20.1191 2.66661 20.3599L5.33328 24.9733C5.47341 25.2166 5.68677 25.4094 5.94295 25.5244C6.19912 25.6393 6.48504 25.6704 6.75994 25.6133L9.26661 25.1066C9.58557 25.0407 9.91761 25.0938 10.2001 25.2559C10.4826 25.4181 10.6959 25.678 10.7999 25.9866L11.6133 28.4266C11.706 28.7026 11.8866 28.9406 12.1274 29.1043C12.3681 29.268 12.6559 29.3485 12.9466 29.3333H18.2799C18.5595 29.334 18.8321 29.2469 19.0594 29.0842C19.2867 28.9215 19.4572 28.6914 19.5466 28.4266L20.3599 25.9866C20.4639 25.678 20.6773 25.4181 20.9598 25.2559C21.2423 25.0938 21.5743 25.0407 21.8933 25.1066L24.3999 25.6133C24.6748 25.6704 24.9608 25.6393 25.2169 25.5244C25.4731 25.4094 25.6865 25.2166 25.8266 24.9733L28.4933 20.3599C28.6348 20.1164 28.6956 19.8342 28.6669 19.5539C28.6381 19.2737 28.5213 19.0097 28.3333 18.7999L26.5333 16.8799ZM24.5466 18.6666L25.6133 19.8666L23.9066 22.8266L22.3333 22.5066C21.373 22.3103 20.374 22.4734 19.5261 22.965C18.6781 23.4566 18.0401 24.2424 17.7333 25.1733L17.2266 26.6666H13.8133L13.3333 25.1466C13.0264 24.2157 12.3885 23.4299 11.5405 22.9383C10.6925 22.4468 9.69357 22.2836 8.73328 22.4799L7.15994 22.7999L5.42661 19.8533L6.49328 18.6533C7.14922 17.9199 7.51185 16.9705 7.51185 15.9866C7.51185 15.0027 7.14922 14.0533 6.49328 13.3199L5.42661 12.1199L7.13328 9.18661L8.70661 9.50661C9.6669 9.7029 10.6658 9.53978 11.5138 9.04821C12.3618 8.55663 12.9997 7.77082 13.3066 6.83994L13.8133 5.33327H17.2266L17.7333 6.85327C18.0401 7.78415 18.6781 8.56996 19.5261 9.06154C20.374 9.55312 21.373 9.71624 22.3333 9.51994L23.9066 9.19994L25.6133 12.1599L24.5466 13.3599C23.898 14.0916 23.5399 15.0355 23.5399 16.0133C23.5399 16.991 23.898 17.9349 24.5466 18.6666ZM15.5199 10.6666C14.4651 10.6666 13.434 10.9794 12.5569 11.5654C11.6798 12.1515 10.9963 12.9844 10.5926 13.959C10.1889 14.9335 10.0833 16.0059 10.2891 17.0404C10.4949 18.075 11.0028 19.0253 11.7487 19.7712C12.4946 20.5171 13.4449 21.025 14.4795 21.2308C15.514 21.4366 16.5864 21.331 17.5609 20.9273C18.5355 20.5236 19.3684 19.84 19.9544 18.963C20.5405 18.0859 20.8533 17.0548 20.8533 15.9999C20.8533 14.5855 20.2914 13.2289 19.2912 12.2287C18.291 11.2285 16.9344 10.6666 15.5199 10.6666ZM15.5199 18.6666C14.9925 18.6666 14.477 18.5102 14.0384 18.2172C13.5999 17.9242 13.2581 17.5077 13.0563 17.0204C12.8544 16.5332 12.8016 15.997 12.9045 15.4797C13.0074 14.9624 13.2614 14.4873 13.6343 14.1143C14.0073 13.7414 14.4824 13.4874 14.9997 13.3845C15.517 13.2816 16.0532 13.3344 16.5404 13.5363C17.0277 13.7381 17.4442 14.0799 17.7372 14.5184C18.0302 14.957 18.1866 15.4725 18.1866 15.9999C18.1866 16.7072 17.9057 17.3855 17.4056 17.8856C16.9055 18.3857 16.2272 18.6666 15.5199 18.6666Z" stroke="#D1D5DB" stroke-width="4" mask="url(#path-1-inside-1_163_1185)"/>
</g>
</g>
</svg>
