<svg width="32" height="32" viewBox="0 0 32 32" fill="none" xmlns="http://www.w3.org/2000/svg">
<g id="Icon_appointment">
<g id="Group">
<path id="Vector" d="M5.84615 7.6925C5.35652 7.6925 4.88695 7.88701 4.54073 8.23323C4.1945 8.57944 4 9.04902 4 9.53864V26.1539C4 26.6435 4.1945 27.1131 4.54073 27.4593C4.88695 27.8055 5.35652 28 5.84615 28H26.1538C26.6435 28 27.1131 27.8055 27.4593 27.4593C27.8055 27.1131 28 26.6435 28 26.1539V9.53864C28 9.04902 27.8055 8.57944 27.4593 8.23323C27.1131 7.88701 26.6435 7.6925 26.1538 7.6925H22.4615" stroke="#D1D5DB" stroke-width="1.71429" stroke-linecap="round" stroke-linejoin="round"/>
<path id="Vector_2" d="M9.53857 4V11.3846" stroke="#D1D5DB" stroke-width="1.71429" stroke-linecap="round" stroke-linejoin="round"/>
<path id="Vector_3" d="M22.4617 4V11.3846" stroke="#D1D5DB" stroke-width="1.71429" stroke-linecap="round" stroke-linejoin="round"/>
<path id="Vector_4" d="M9.53857 7.6925H18.7693" stroke="#D1D5DB" stroke-width="1.71429" stroke-linecap="round" stroke-linejoin="round"/>
<path id="Vector_5" d="M9.53831 17.8464C10.0481 17.8464 10.4614 17.4331 10.4614 16.9233C10.4614 16.4135 10.0481 16.0002 9.53831 16.0002C9.02851 16.0002 8.61523 16.4135 8.61523 16.9233C8.61523 17.4331 9.02851 17.8464 9.53831 17.8464Z" stroke="#D1D5DB" stroke-width="1.71429" stroke-linecap="round" stroke-linejoin="round"/>
<path id="Vector_6" d="M16.0002 17.8464C16.51 17.8464 16.9233 17.4331 16.9233 16.9233C16.9233 16.4135 16.51 16.0002 16.0002 16.0002C15.4904 16.0002 15.0771 16.4135 15.0771 16.9233C15.0771 17.4331 15.4904 17.8464 16.0002 17.8464Z" stroke="#D1D5DB" stroke-width="1.71429" stroke-linecap="round" stroke-linejoin="round"/>
<path id="Vector_7" d="M22.4614 17.8464C22.9712 17.8464 23.3845 17.4331 23.3845 16.9233C23.3845 16.4135 22.9712 16.0002 22.4614 16.0002C21.9516 16.0002 21.5383 16.4135 21.5383 16.9233C21.5383 17.4331 21.9516 17.8464 22.4614 17.8464Z" stroke="#D1D5DB" stroke-width="1.71429" stroke-linecap="round" stroke-linejoin="round"/>
<path id="Vector_8" d="M9.53831 23.3846C10.0481 23.3846 10.4614 22.9713 10.4614 22.4615C10.4614 21.9517 10.0481 21.5385 9.53831 21.5385C9.02851 21.5385 8.61523 21.9517 8.61523 22.4615C8.61523 22.9713 9.02851 23.3846 9.53831 23.3846Z" stroke="#D1D5DB" stroke-width="1.71429" stroke-linecap="round" stroke-linejoin="round"/>
</g>
</g>
</svg>
