<svg width="32" height="32" viewBox="0 0 32 32" fill="none" xmlns="http://www.w3.org/2000/svg">
<g id="u:history">
<path id="Vector" d="M16 2.66663C12.5818 2.67638 9.29795 3.99851 6.82663 6.35996V3.99996C6.82663 3.64634 6.68615 3.3072 6.4361 3.05715C6.18605 2.8071 5.84691 2.66663 5.49329 2.66663C5.13967 2.66663 4.80053 2.8071 4.55048 3.05715C4.30044 3.3072 4.15996 3.64634 4.15996 3.99996V9.99996C4.15996 10.3536 4.30044 10.6927 4.55048 10.9428C4.80053 11.1928 5.13967 11.3333 5.49329 11.3333H11.4933C11.8469 11.3333 12.1861 11.1928 12.4361 10.9428C12.6862 10.6927 12.8266 10.3536 12.8266 9.99996C12.8266 9.64634 12.6862 9.3072 12.4361 9.05715C12.1861 8.8071 11.8469 8.66663 11.4933 8.66663H8.29329C10.0077 6.8751 12.2926 5.73683 14.7553 5.44752C17.218 5.1582 19.7046 5.73593 21.7875 7.08135C23.8704 8.42678 25.4195 10.4558 26.1684 12.8197C26.9173 15.1835 26.8193 17.7344 25.8912 20.0338C24.9631 22.3332 23.2628 24.2374 21.0828 25.419C18.9028 26.6007 16.3793 26.9859 13.946 26.5084C11.5128 26.031 9.32191 24.7207 7.75008 22.8029C6.17825 20.8851 5.32367 18.4796 5.33329 16C5.33329 15.6463 5.19282 15.3072 4.94277 15.0572C4.69272 14.8071 4.35358 14.6666 3.99996 14.6666C3.64634 14.6666 3.3072 14.8071 3.05715 15.0572C2.8071 15.3072 2.66663 15.6463 2.66663 16C2.66663 18.637 3.44861 21.2149 4.9137 23.4076C6.37878 25.6002 8.46116 27.3092 10.8975 28.3184C13.3339 29.3275 16.0148 29.5916 18.6012 29.0771C21.1876 28.5626 23.5634 27.2928 25.4281 25.4281C27.2928 23.5634 28.5626 21.1876 29.0771 18.6012C29.5916 16.0148 29.3275 13.3339 28.3184 10.8975C27.3092 8.46116 25.6002 6.37878 23.4076 4.9137C21.2149 3.44861 18.637 2.66663 16 2.66663ZM16 10.6666C15.6463 10.6666 15.3072 10.8071 15.0572 11.0572C14.8071 11.3072 14.6666 11.6463 14.6666 12V16C14.6666 16.3536 14.8071 16.6927 15.0572 16.9428C15.3072 17.1928 15.6463 17.3333 16 17.3333H18.6666C19.0202 17.3333 19.3594 17.1928 19.6094 16.9428C19.8595 16.6927 20 16.3536 20 16C20 15.6463 19.8595 15.3072 19.6094 15.0572C19.3594 14.8071 19.0202 14.6666 18.6666 14.6666H17.3333V12C17.3333 11.6463 17.1928 11.3072 16.9428 11.0572C16.6927 10.8071 16.3536 10.6666 16 10.6666Z" fill="#2E1619"/>
</g>
</svg>
