<svg width="25" height="25" viewBox="0 0 25 25" fill="none" xmlns="http://www.w3.org/2000/svg">
<g id="healthicons:blood-pressure-2-outline">
<g id="Group">
<path id="Vector" d="M13.013 11.3065L12.2896 13.7179L13.013 14.6825L13.7364 13.7179L13.013 11.3065Z" fill="white"/>
<path id="Vector_2" fill-rule="evenodd" clip-rule="evenodd" d="M17.3541 9.44144C16.9125 9.22052 16.4918 8.95998 16.0973 8.66303C15.3531 8.0973 14.4599 7.18192 14.4599 5.97621C14.4599 4.90215 15.2721 3.83099 16.4797 3.83099C17.0402 3.83099 17.4935 4.05477 17.8359 4.389C18.1779 4.05477 18.6317 3.83099 19.1926 3.83099C20.3998 3.83099 21.2119 4.90312 21.2119 5.97621C21.2119 7.14479 20.3144 8.06113 19.5775 8.63023C19.1817 8.9338 18.7606 9.20279 18.3187 9.43421C18.3216 10.2753 18.3351 11.0783 18.3476 11.8384C18.3766 13.5047 18.4007 14.9656 18.2999 16.1718C18.1465 17.9987 17.6937 19.4648 16.3394 20.2582C15.0078 21.038 13.0401 21.3313 11.4104 21.133C10.5925 21.0337 9.81164 20.8051 9.22084 20.4106C8.79112 20.1236 8.45015 19.7373 8.29003 19.2531C7.28832 19.2073 6.29191 19.0245 5.50385 18.6975C4.65262 18.3445 3.84961 17.7329 3.84961 16.7756V7.26584H3.85106C3.85011 7.24624 3.84962 7.22663 3.84961 7.207C3.84961 5.87541 6.00881 4.79557 8.67248 4.79557C11.3362 4.79557 13.4954 5.87541 13.4954 7.207C13.4954 7.22629 13.4949 7.24655 13.4939 7.26584H13.4954V10.135C14.2988 10.2512 15.0335 10.6529 15.5649 11.2667C16.0962 11.8805 16.3887 12.6651 16.3886 13.4769C16.3885 14.2888 16.096 15.0734 15.5646 15.6871C15.0331 16.3008 14.2983 16.7024 13.4949 16.8185C13.4727 17.7903 12.6957 18.4052 11.8387 18.7544C11.1297 19.0428 10.2568 19.202 9.36456 19.2492C9.46102 19.3785 9.59124 19.4981 9.75714 19.6085C10.1767 19.8892 10.7941 20.0865 11.5271 20.1757C12.9986 20.3546 14.7425 20.0754 15.8523 19.4257C16.7739 18.8856 17.1906 17.8559 17.3387 16.0912C17.4356 14.9328 17.412 13.5534 17.3845 11.9252C17.3684 11.0974 17.3583 10.2694 17.3541 9.44144ZM16.4797 4.79557C15.9097 4.79557 15.4245 5.32415 15.4245 5.97621C15.4245 6.69723 15.9782 7.36134 16.6809 7.89426C17.0411 8.16541 17.4261 8.40213 17.8306 8.6013C18.2374 8.39133 18.6248 8.14569 18.9881 7.86725C19.698 7.31841 20.2474 6.65478 20.2474 5.97669C20.2474 5.32367 19.7622 4.79557 19.1921 4.79557C18.7952 4.79557 18.4788 5.01646 18.2575 5.41531L17.8359 6.17587L17.4144 5.41531C17.1926 5.01646 16.8762 4.79557 16.4797 4.79557ZM8.67248 9.61844C10.25 9.61844 11.6506 9.23984 12.5308 8.65386V10.1345C11.7269 10.2501 10.9917 10.6515 10.4598 11.2652C9.92794 11.8789 9.63507 12.6638 9.63489 13.4759C9.63471 14.288 9.92724 15.0729 10.4589 15.6869C10.9905 16.3008 11.7255 16.7026 12.5293 16.8185C12.5081 17.1937 12.2048 17.5636 11.4751 17.8607C10.7396 18.1602 9.72338 18.3107 8.67779 18.2991C8.52979 18.2974 8.38186 18.2924 8.23408 18.2842V9.60879C8.37877 9.61506 8.5249 9.61844 8.67248 9.61844ZM12.5308 7.207C12.5308 7.3107 12.4218 7.66421 11.6516 8.04956C10.9387 8.40549 9.88688 8.65386 8.67248 8.65386C7.45808 8.65386 6.40573 8.40549 5.69339 8.04956C4.92318 7.66421 4.81418 7.3107 4.81418 7.207C4.81418 7.10331 4.92318 6.7498 5.69339 6.36445C6.40621 6.00852 7.45808 5.76014 8.67248 5.76014C9.88688 5.76014 10.9392 6.00852 11.6516 6.36445C12.4218 6.7498 12.5308 7.10331 12.5308 7.207ZM13.0131 15.8882C13.6526 15.8882 14.266 15.6341 14.7182 15.1819C15.1704 14.7296 15.4245 14.1163 15.4245 13.4767C15.4245 12.8372 15.1704 12.2238 14.7182 11.7716C14.266 11.3194 13.6526 11.0653 13.0131 11.0653C12.3735 11.0653 11.7602 11.3194 11.3079 11.7716C10.8557 12.2238 10.6016 12.8372 10.6016 13.4767C10.6016 14.1163 10.8557 14.7296 11.3079 15.1819C11.7602 15.6341 12.3735 15.8882 13.0131 15.8882Z" fill="white"/>
</g>
</g>
</svg>
