<svg width="20" height="20" viewBox="0 0 20 20" fill="none" xmlns="http://www.w3.org/2000/svg">
<g id="noto:sun">
<path id="Vector" d="M6.0469 6.82281C4.64772 8.62114 4.67221 11.8158 6.46046 13.3994C8.49079 15.1963 11.3482 15.1776 13.1451 13.5248C15.2994 11.542 15.1755 8.24217 13.2705 6.37323C11.3554 4.4942 7.93313 4.39621 6.0469 6.82281Z" fill="#FCC11A"/>
<path id="Vector_2" d="M8.29341 6.20603C7.74007 5.96107 7.13486 6.62824 6.87117 7.08359C6.60747 7.54037 6.3625 8.43522 6.92448 8.66433C7.48646 8.89201 7.88993 8.50583 8.29485 7.83866C8.69688 7.17149 8.92599 6.48702 8.29341 6.20603Z" fill="#FEE269"/>
<path id="Vector_3" d="M9.73408 3.69863C9.60007 3.94936 9.64474 4.14245 9.91132 4.20585C10.1779 4.26925 11.8365 4.53871 11.9762 4.54736C12.1794 4.56033 12.2543 4.40759 12.2298 4.23035C12.2039 4.05311 11.799 1.57031 11.7615 1.34264C11.7241 1.11496 11.4834 0.887291 11.2543 1.19134C11.0252 1.49538 9.83494 3.50986 9.73408 3.69863ZM14.0282 5.42203C13.7674 5.50272 13.7746 5.66267 13.9143 5.86585C14.0541 6.06903 15.0167 7.53738 15.1046 7.63969C15.1939 7.74055 15.3452 7.76649 15.472 7.61375C15.5988 7.46245 17.181 5.24335 17.2963 5.10502C17.4865 4.87734 17.3727 4.6367 17.0816 4.71163C16.8597 4.77071 14.1924 5.3716 14.0282 5.42203ZM16.0167 9.69163C15.8294 9.585 15.5859 9.61526 15.5225 9.8559C15.4591 10.0965 15.181 11.8444 15.155 11.9972C15.1291 12.1499 15.2444 12.3012 15.4331 12.2638C15.6219 12.2263 18.2358 11.8387 18.4102 11.7955C18.7142 11.7191 18.8151 11.415 18.4995 11.1874C18.2949 11.0389 16.194 9.7925 16.0167 9.69163ZM13.9259 13.833C14.1276 13.7249 14.3063 13.807 14.3567 14.0362C14.4071 14.2638 14.9648 16.5953 15.0541 17.0262C15.0988 17.2423 14.851 17.4196 14.6492 17.2928C14.4461 17.166 12.2443 15.6313 12.103 15.506C11.8999 15.3287 12.0411 15.1443 12.1405 15.0506C12.3422 14.859 13.7357 13.9353 13.9259 13.833ZM7.79453 15.1126C7.53948 15.0881 7.46454 15.3157 7.50345 15.5175C7.54092 15.7207 7.92133 18.2899 7.94727 18.4816C7.98474 18.7597 8.27725 18.8749 8.46602 18.5954C8.65479 18.3159 9.95743 16.2322 10.0626 16.0362C10.2528 15.6818 10.1131 15.6054 9.92284 15.5175C9.73408 15.4296 8.06111 15.1385 7.79453 15.1126ZM4.14743 12.1615C4.32467 11.8704 4.55234 11.9468 4.71805 12.2249C4.83045 12.4151 5.78149 13.6947 5.87083 13.833C5.96017 13.9728 5.99763 14.2379 5.71953 14.3013C5.43854 14.3661 3.17189 14.9613 2.81741 15.0247C2.46293 15.0881 2.25975 14.81 2.48743 14.5059C2.62 14.3272 4.04656 12.3272 4.14743 12.1615ZM3.66614 9.95677C3.99036 10.1009 4.1431 10.049 4.21083 9.817C4.30017 9.51295 4.56531 8.11953 4.57828 7.80252C4.58692 7.59646 4.50191 7.3976 4.18489 7.44804C3.86788 7.49847 1.58826 7.81693 1.29718 7.91779C0.958555 8.03595 0.983052 8.40772 1.20784 8.52588C1.47442 8.66566 3.43703 9.8559 3.66614 9.95677ZM7.60576 4.6367C7.78876 4.49116 7.73257 4.28222 7.56829 4.16838C7.40402 4.05455 5.36937 2.58331 5.11144 2.38158C4.88376 2.20434 4.60421 2.26774 4.68059 2.67266C4.73534 2.96373 5.38378 5.51137 5.42845 5.68717C5.47888 5.89035 5.63163 5.99121 5.80887 5.86441C5.98322 5.73904 7.41555 4.78944 7.60576 4.6367Z" fill="#FFA722"/>
</g>
</svg>
